:FULLY-SPECIFIED
:FORCE-ALL-JOINTS-BE-3DOF
:DEGREES
408
root 4.5592 16.1596 -11.2741 1.33434 -38.179 -1.24924
lfemur -28.5245 10.1504 -10.3653
ltibia 50.1571 -0 0
lfoot -14.5321 12.136 -0.0339484
ltoes 3.65569 -0 0
rfemur -45.6172 -23.8847 26.0815
rtibia 83.3129 -0 0
rfoot 1.61259 0.277177 -0.00395103
rtoes 32.337 -0 0
lowerback 6.21998 4.48219 -0.620368
upperback 1.94171 5.8577 -2.14017
thorax -1.3081 2.91947 -2.28154
lowerneck -6.29926 2.81046 7.498
upperneck 3.3773 3.1338 -0.621266
head 2.33879 1.65218 -1.37518
lclavicle -2.01197e-14 1.47877e-14 -4.24089e-32
lhumerus -45.1289 -17.7355 94.4077
lradius 51.1343 -0 0
lwrist 18.4679 0 0
lhand -21.0077 1.51463 0.00192451
lfingers 7.12502 -0 0
lthumb 5.36685 31.4265 0.0018344
rclavicle -2.01197e-14 1.47877e-14 -4.24089e-32
rhumerus -44.7525 9.76835 -91.0022
rradius 65.6606 -0 0
rwrist 7.95476 0 0
rhand -19.9296 -17.0263 -0.0298258
rfingers 7.12502 -0 0
rthumb 6.407 -46.8894 -0.0250851
409
root 4.51149 16.1508 -11.139 1.07197 -38.8063 -1.06756
lfemur -28.1891 9.79252 -10.3944
ltibia 49.4465 -0 0
lfoot -14.6108 12.5669 -0.0232238
ltoes 3.37742 -0 0
rfemur -46.1002 -24.369 26.031
rtibia 84.3728 -0 0
rfoot 2.18543 0.270315 -0.00270252
rtoes 32.743 -0 0
lowerback 6.24439 4.57601 -0.706742
upperback 1.91743 5.97499 -2.23049
thorax -1.34165 2.97727 -2.33449
lowerneck -6.24598 2.92625 7.63743
upperneck 3.48936 3.28519 -0.700427
head 2.37192 1.72799 -1.41955
lclavicle -2.00724e-14 1.56895e-14 -2.90166e-32
lhumerus -45.2336 -17.6051 94.3507
lradius 50.95 -0 0
lwrist 18.3951 0 0
lhand -21.0381 1.45086 0.00131675
lfingers 7.12502 -0 0
lthumb 5.33757 31.3635 0.0012551
rclavicle -2.00724e-14 1.56895e-14 -2.90166e-32
rhumerus -44.9526 9.72951 -90.9447
rradius 65.7082 -0 0
rwrist 7.969 0 0
rhand -20.2017 -16.9164 -0.0204055
rfingers 7.12502 -0 0
rthumb 6.14454 -46.7936 -0.0171623
410
root 4.46377 16.1421 -11.0039 0.804678 -39.4329 -0.880527
lfemur -27.8539 9.43484 -10.4255
ltibia 48.736 -0 0
lfoot -14.6894 12.9978 -0.0119074
ltoes 3.09916 -0 0
rfemur -46.5846 -24.8537 25.9848
rtibia 85.4328 -0 0
rfoot 2.75827 0.263465 -0.00138547
rtoes 33.1491 -0 0
lowerback 6.26865 4.66987 -0.793088
upperback 1.89295 6.09224 -2.32089
thorax -1.37526 3.03503 -2.38748
lowerneck -6.19242 3.0419 7.77698
upperneck 3.60122 3.43674 -0.779304
head 2.40498 1.80382 -1.46388
lclavicle -2.00252e-14 1.65913e-14 -1.48803e-32
lhumerus -45.3384 -17.4749 94.2934
lradius 50.7656 -0 0
lwrist 18.3224 0 0
lhand -21.0684 1.38708 0.000675249
lfingers 7.12502 -0 0
lthumb 5.30829 31.3006 0.000643633
rclavicle -2.00252e-14 1.65913e-14 -1.48803e-32
rhumerus -45.1527 9.69088 -90.8869
rradius 65.7559 -0 0
rwrist 7.98324 0 0
rhand -20.4738 -16.8066 -0.0104635
rfingers 7.12502 -0 0
rthumb 5.88209 -46.6978 -0.00880049
411
root 4.41606 16.1333 -10.8688 0.532276 -40.0589 -0.687973
lfemur -27.5188 9.07735 -10.4588
ltibia 48.0255 0 0
lfoot -14.768 13.4286 0
ltoes 2.82089 0 0
rfemur -47.0705 -25.3387 25.9429
rtibia 86.4927 0 0
rfoot 3.33111 0.256629 0
rtoes 33.5552 0 0
lowerback 6.29278 4.76377 -0.879405
upperback 1.86828 6.20945 -2.41136
thorax -1.40892 3.09276 -2.4405
lowerneck -6.13857 3.15743 7.91665
upperneck 3.71289 3.58844 -0.857897
head 2.43799 1.87968 -1.50816
lclavicle -1.99779e-14 1.74931e-14 0
lhumerus -45.4433 -17.3447 94.236
lradius 50.5812 0 0
lwrist 18.2497 0 0
lhand -21.0987 1.32331 0
lfingers 7.12502 0 0
lthumb 5.27901 31.2376 0
rclavicle -1.99779e-14 1.74931e-14 0
rhumerus -45.3529 9.65244 -90.8291
rradius 65.8035 0 0
rwrist 7.99748 0 0
rhand -20.7459 -16.6968 0
rfingers 7.12502 0 0
rthumb 5.61965 -766.602 0
412
root 4.3469 16.1171 -10.811 0.921104 -38.5462 -1.232
lfemur -28.2204 9.45718 -10.3373
ltibia 48.3988 -0 0
lfoot -14.8593 13.0439 0.0123333
ltoes 2.7969 -0 0
rfemur -45.9645 -25.0837 25.456
rtibia 85.2055 -0 0
rfoot 3.07097 -0.195803 0.0415476
rtoes 31.4845 -0 0
lowerback 6.23812 4.66957 -0.700097
upperback 1.83889 6.09872 -2.30518
thorax -1.41076 3.03756 -2.42261
lowerneck -6.16661 3.03679 7.82068
upperneck 3.62968 3.43285 -0.837438
head 2.40885 1.8004 -1.48957
lclavicle -2.05136e-14 1.70858e-14 -7.61637e-32
lhumerus -45.3459 -17.5089 94.4119
lradius 50.6476 -0 0
lwrist 17.8912 0 0
lhand -21.2782 1.07046 0.0159035
lfingers 7.12502 -0 0
lthumb 5.10567 30.9861 0.0152738
rclavicle -2.05136e-14 1.70858e-14 -7.61637e-32
rhumerus -45.4376 9.36129 -90.7186
rradius 65.7917 -0 0
rwrist 8.07054 0 0
rhand -20.9075 -16.8736 0.00999665
rfingers 7.12502 -0 0
rthumb 5.46359 -46.7806 0.00975183
413
root 4.27773 16.1009 -10.7532 1.28404 -37.0308 -1.75212
lfemur -28.922 9.83845 -10.2203
ltibia 48.7722 -0 0
lfoot -14.9506 12.6592 0.0240535
ltoes 2.7729 -0 0
rfemur -44.8632 -24.8203 24.9756
rtibia 83.9184 -0 0
rfoot 2.8105 -0.648419 0.0810394
rtoes 29.4139 -0 0
lowerback 6.18318 4.57555 -0.520723
upperback 1.8093 5.98804 -2.19897
thorax -1.41262 2.98236 -2.40471
lowerneck -6.19444 2.91611 7.72478
upperneck 3.54643 3.27729 -0.816756
head 2.37969 1.72113 -1.47093
lclavicle -2.10494e-14 1.66786e-14 -1.48519e-31
lhumerus -45.249 -17.6733 94.5877
lradius 50.714 -0 0
lwrist 17.5327 0 0
lhand -21.4577 0.817559 0.0310147
lfingers 7.12502 -0 0
lthumb 4.93227 30.7346 0.0297865
rclavicle -2.10494e-14 1.66786e-14 -1.48519e-31
rhumerus -45.5229 9.07031 -90.6078
rradius 65.7799 -0 0
rwrist 8.14359 0 0
rhand -21.0691 -17.0504 0.0194945
rfingers 7.12502 -0 0
rthumb 5.30751 -46.9592 0.0190171
414
root 4.20857 16.0847 -10.6954 1.62308 -35.5129 -2.25044
lfemur -29.6236 10.2211 -10.108
ltibia 49.1455 -0 0
lfoot -15.042 12.2744 0.0351602
ltoes 2.74891 -0 0
rfemur -43.7668 -24.5486 24.5019
rtibia 82.6312 -0 0
rfoot 2.54974 -1.10121 0.118472
rtoes 27.3432 -0 0
lowerback 6.12795 4.48169 -0.341281
upperback 1.7795 5.87742 -2.09273
thorax -1.41449 2.92716 -2.38682
lowerneck -6.22206 2.79538 7.62895
upperneck 3.46314 3.12176 -0.795851
head 2.3505 1.64187 -1.45226
lclavicle -2.15851e-14 1.62713e-14 -2.17067e-31
lhumerus -45.1526 -17.8381 94.7634
lradius 50.7805 -0 0
lwrist 17.1742 0 0
lhand -21.6373 0.564612 0.0453331
lfingers 7.12502 -0 0
lthumb 4.75881 30.483 0.0435379
rclavicle -2.15851e-14 1.62713e-14 -2.17067e-31
rhumerus -45.6086 8.77949 -90.4967
rradius 65.7681 -0 0
rwrist 8.21665 0 0
rhand -21.2308 -17.2273 0.0284935
rfingers 7.12502 -0 0
rthumb 5.15139 -47.1379 0.0277957
415
root 4.1394 16.0685 -10.6376 1.94001 -33.9927 -2.72883
lfemur -30.3253 10.6051 -10.0003
ltibia 49.5189 -0 0
lfoot -15.1335 11.8897 0.0456527
ltoes 2.72491 -0 0
rfemur -42.6752 -24.2687 24.035
rtibia 81.3441 -0 0
rfoot 2.28868 -1.55417 0.153842
rtoes 25.2725 -0 0
lowerback 6.07243 4.38801 -0.161772
upperback 1.74951 5.76686 -1.98644
thorax -1.41638 2.87196 -2.36893
lowerneck -6.24948 2.6746 7.53318
upperneck 3.3798 2.96626 -0.774723
head 2.32129 1.56261 -1.43354
lclavicle -2.21209e-14 1.5864e-14 -2.81806e-31
lhumerus -45.0565 -18.0031 94.9389
lradius 50.8469 -0 0
lwrist 16.8158 0 0
lhand -21.817 0.311623 0.0588585
lfingers 7.12502 -0 0
lthumb 4.58528 30.2314 0.0565275
rclavicle -2.21209e-14 1.5864e-14 -2.81806e-31
rhumerus -45.6949 8.48883 -90.3851
rradius 65.7563 -0 0
rwrist 8.28971 0 0
rhand -21.3925 -17.4042 0.0369934
rfingers 7.12502 -0 0
rthumb 4.99525 -47.3166 0.0360874
416
root 4.07024 16.0523 -10.5798 2.23641 -32.4704 -3.189
lfemur -31.0271 10.9903 -9.89724
ltibia 49.8922 -0 0
lfoot -15.2251 11.5049 0.0555307
ltoes 2.70092 -0 0
rfemur -41.5887 -23.9808 23.575
rtibia 80.0569 -0 0
rfoot 2.02735 -2.00728 0.187147
rtoes 23.2018 -0 0
lowerback 6.01662 4.2945 0.0178059
upperback 1.71932 5.65635 -1.88012
thorax -1.41829 2.81676 -2.35103
lowerneck -6.2767 2.55378 7.43749
upperneck 3.29641 2.81079 -0.753371
head 2.29205 1.48336 -1.41479
lclavicle -2.26566e-14 1.54568e-14 -3.42737e-31
lhumerus -44.961 -18.1684 95.1143
lradius 50.9133 -0 0
lwrist 16.4573 0 0
lhand -21.9967 0.0585912 0.0715902
lfingers 7.12502 -0 0
lthumb 4.4117 29.9798 0.0687548
rclavicle -2.26566e-14 1.54568e-14 -3.42737e-31
rhumerus -45.7816 8.19835 -90.2733
rradius 65.7445 -0 0
rwrist 8.36277 0 0
rhand -21.5542 -17.5811 0.0449941
rfingers 7.12502 -0 0
rthumb 4.83908 -47.4953 0.043892
417
root 4.00107 16.0361 -10.522 2.51373 -30.9462 -3.63248
lfemur -31.7292 11.3768 -9.79888
ltibia 50.2655 -0 0
lfoot -15.3167 11.1201 0.0647935
ltoes 2.67692 -0 0
rfemur -40.5071 -23.685 23.1222
rtibia 78.7697 -0 0
rfoot 1.76577 -2.46055 0.218384
rtoes 21.1312 -0 0
lowerback 5.96053 4.20117 0.197453
upperback 1.68892 5.54589 -1.77376
thorax -1.42022 2.76157 -2.33313
lowerneck -6.30371 2.43291 7.34186
upperneck 3.21298 2.65535 -0.731796
head 2.26279 1.40412 -1.396
lclavicle -2.31924e-14 1.50495e-14 -3.9986e-31
lhumerus -44.8658 -18.334 95.2896
lradius 50.9797 -0 0
lwrist 16.0988 0 0
lhand -22.1765 -0.194479 0.0835281
lfingers 7.12502 -0 0
lthumb 4.23807 29.7281 0.0802197
rclavicle -2.31924e-14 1.50495e-14 -3.9986e-31
rhumerus -45.8689 7.90803 -90.161
rradius 65.7328 -0 0
rwrist 8.43583 0 0
rhand -21.7159 -17.758 0.0524954
rfingers 7.12502 -0 0
rthumb 4.68289 -47.674 0.0512096
418
root 3.9319 16.0199 -10.4642 2.77323 -29.4203 -4.06068
lfemur -32.4316 11.7644 -9.70524
ltibia 50.6389 -0 0
lfoot -15.4084 10.7353 0.0734408
ltoes 2.65293 -0 0
rfemur -39.4305 -23.3815 22.6765
rtibia 77.4826 -0 0
rfoot 1.50395 -2.91395 0.247551
rtoes 19.0605 -0 0
lowerback 5.90415 4.10801 0.377171
upperback 1.65833 5.43549 -1.66737
thorax -1.42216 2.70637 -2.31523
lowerneck -6.33052 2.312 7.24629
upperneck 3.1295 2.49994 -0.709996
head 2.2335 1.32489 -1.37716
lclavicle -2.37281e-14 1.46422e-14 -4.53174e-31
lhumerus -44.7711 -18.4999 95.4647
lradius 51.0461 -0 0
lwrist 15.7403 0 0
lhand -22.3564 -0.447585 0.0946717
lfingers 7.12502 -0 0
lthumb 4.06439 29.4764 0.0909217
rclavicle -2.37281e-14 1.46422e-14 -4.53174e-31
rhumerus -45.9567 7.61788 -90.0484
rradius 65.721 -0 0
rwrist 8.5089 0 0
rhand -21.8777 -17.935 0.0594972
rfingers 7.12502 -0 0
rthumb 4.52668 -47.8527 0.0580399
